<?xml version="1.0" encoding="utf-8"?>
<!-- Generator: Adobe Illustrator 21.0.2, SVG Export Plug-In . SVG Version: 6.00 Build 0)  -->
<svg version="1.1"
	 id="svg2" inkscape:version="0.91 r13725" sodipodi:docname="elephpant2.svg" xmlns:cc="http://creativecommons.org/ns#" xmlns:dc="http://purl.org/dc/elements/1.1/" xmlns:inkscape="http://www.inkscape.org/namespaces/inkscape" xmlns:rdf="http://www.w3.org/1999/02/22-rdf-syntax-ns#" xmlns:sodipodi="http://sodipodi.sourceforge.net/DTD/sodipodi-0.dtd" xmlns:svg="http://www.w3.org/2000/svg"
	 xmlns="http://www.w3.org/2000/svg" xmlns:xlink="http://www.w3.org/1999/xlink" x="0px" y="0px" viewBox="0 0 350 240"
	 style="enable-background:new 0 0 350 240;" xml:space="preserve">
<style type="text/css">
	.st0{clip-path:url(#SVGID_2_);}
	.st1{fill:url(#path28_1_);}
	.st2{fill:#363254;}
	.st3{clip-path:url(#SVGID_4_);}
	.st4{fill:url(#path46_1_);}
	.st5{fill:#8B9DD7;}
	.st6{clip-path:url(#SVGID_6_);}
	.st7{fill:url(#path76_1_);}
	.st8{fill:#A6BDE6;}
	.st9{clip-path:url(#SVGID_8_);}
	.st10{fill:url(#path106_1_);}
	.st11{fill:#7483CA;}
	.st12{fill:#839AD6;}
	.st13{clip-path:url(#SVGID_10_);}
	.st14{fill:url(#path136_1_);}
	.st15{fill:#080604;}
	.st16{clip-path:url(#SVGID_12_);}
	.st17{fill:url(#path154_1_);}
	.st18{clip-path:url(#SVGID_14_);}
	.st19{fill:url(#path172_1_);}
	.st20{clip-path:url(#SVGID_16_);}
	.st21{fill:url(#path188_1_);}
	.st22{clip-path:url(#SVGID_18_);}
	.st23{fill:url(#path204_1_);}
	.st24{clip-path:url(#SVGID_20_);}
	.st25{fill:url(#path240_1_);}
	.st26{fill:#FCFCFC;}
	.st27{fill:#FFFFFF;}
	.st28{fill:none;stroke:#FFFFFF;stroke-width:5.3333;}
	.st29{clip-path:url(#SVGID_22_);}
	.st30{fill:url(#path306_1_);}
	.st31{clip-path:url(#SVGID_24_);}
	.st32{fill:url(#path324_1_);}
</style>
<sodipodi:namedview  bordercolor="#666666" borderopacity="1" gridtolerance="10" guidetolerance="10" id="namedview194" inkscape:current-layer="svg2" inkscape:cx="215.60601" inkscape:cy="130.47839" inkscape:pageopacity="0" inkscape:pageshadow="2" inkscape:window-height="1017" inkscape:window-maximized="1" inkscape:window-width="2560" inkscape:window-x="-8" inkscape:window-y="-8" inkscape:zoom="2.0408752" objecttolerance="10" pagecolor="#ffffff" showgrid="false">
	</sodipodi:namedview>
<g id="g4577" transform="matrix(0.99618507,0,0,0.98808081,8.1337521e-7,-101.85463)">
	<g id="g14" transform="matrix(0.13333333,0,0,-0.13333333,0,462.54667)">
		<g>
			<defs>
				<path id="SVGID_1_" d="M366.7,2446c0,0,127.7,141.4,216.2,200c28.2,18.6,237.8,129,372.4-250.7
					c73.6-207.9,74.9-362.7-92.5-428.7c-100.2-39.6-64.4-113.6-64.4-113.6"/>
			</defs>
			<clipPath id="SVGID_2_">
				<use xlink:href="#SVGID_1_"  style="overflow:visible;"/>
			</clipPath>
			<g id="g16" class="st0">
				
					<linearGradient id="path28_1_" gradientUnits="userSpaceOnUse" x1="-964.6494" y1="-1220.691" x2="-963.6494" y2="-1220.691" gradientTransform="matrix(115.6676 -86.2008 -85.4996 -114.7266 8272.4082 -221150.4219)">
					<stop  offset="0" style="stop-color:#8C9BD6"/>
					<stop  offset="1" style="stop-color:#505E9B"/>
				</linearGradient>
				<path id="path28" inkscape:connector-curvature="0" class="st1" d="M366.7,2446c0,0,127.7,141.4,216.2,200
					c28.2,18.6,237.8,129,372.4-250.7c73.6-207.9,74.9-362.7-92.5-428.7c-100.2-39.6-64.4-113.6-64.4-113.6"/>
			</g>
		</g>
	</g>
	<path id="path30" inkscape:connector-curvature="0" class="st2" d="M76.1,107.5c-12,7.9-28.7,26.3-29.4,27.1
		c-1,1.2-0.9,2.9,0.3,3.9c1.2,1,3,0.9,4.1-0.3c0.2-0.2,16.9-18.7,28.3-26.2c0.3-0.2,8.6-5.6,18.7-2.4c10.6,3.4,19.8,15.3,26.6,34.4
		c10.8,30.4,7.6,46.5-10.7,53.7c-5.3,2.1-8.7,5.1-10.3,9c-2.1,5.1,0.1,9.7,0.2,9.9c0.7,1.4,2.4,2,3.8,1.3c1.4-0.6,2.1-2.3,1.4-3.7
		c0,0-1.2-2.8,0-5.6c1-2.4,3.4-4.3,7.1-5.8c27.6-10.9,21.9-38.1,14-60.6c-7.5-21.1-17.6-33.8-30.2-37.9
		C87.3,100.4,77.2,106.7,76.1,107.5"/>
	<g id="g32" transform="matrix(0.13333333,0,0,-0.13333333,0,462.54667)">
		<g>
			<defs>
				<path id="SVGID_3_" d="M2084.2,2364.1h268.2c22.5,0,40.7-14.9,40.7-33.3l0,0c0-18.4-18.2-33.3-40.7-33.3h-210.5L2084.2,2364.1z"
					/>
			</defs>
			<clipPath id="SVGID_4_">
				<use xlink:href="#SVGID_3_"  style="overflow:visible;"/>
			</clipPath>
			<g id="g34" class="st3">
				
					<linearGradient id="path46_1_" gradientUnits="userSpaceOnUse" x1="-964.7656" y1="-1220.7538" x2="-963.7656" y2="-1220.7538" gradientTransform="matrix(116.6292 -86.9175 -86.2105 -115.6804 8909.9629 -222277.0625)">
					<stop  offset="0" style="stop-color:#808FD0"/>
					<stop  offset="1" style="stop-color:#505E9B"/>
				</linearGradient>
				<path id="path46" inkscape:connector-curvature="0" class="st4" d="M2084.2,2364.1h268.2c22.5,0,40.7-14.9,40.7-33.3l0,0
					c0-18.4-18.2-33.3-40.7-33.3h-210.5L2084.2,2364.1"/>
			</g>
		</g>
	</g>
	<path id="path48" inkscape:connector-curvature="0" class="st2" d="M313.7,150.1c1.5,0,2.5,0.9,2.5,1.7c0,0.8-1,1.7-2.5,1.7
		c0,0-24.3,0-26.7,0c-0.6-0.7-1.4-1.7-2.9-3.3C292.5,150.1,313.7,150.1,313.7,150.1L313.7,150.1z M271.7,144.6l12.5,14.4h29.4
		c4.6,0,8.3-3.2,8.3-7.2c0-4-3.7-7.2-8.3-7.2H271.7"/>
	<path id="path50" inkscape:connector-curvature="0" class="st5" d="M324.7,137c4.9-2.3,10.7-1.8,12.8,1.3c2.2,3.1,0,7.4-5,9.8
		c-4.9,2.3-17.8,5.2-20,2.1C310.5,147.1,319.8,139.4,324.7,137"/>
	<path id="path52" inkscape:connector-curvature="0" class="st2" d="M326,139.5L326,139.5c3.8-1.8,8-1.3,9.2,0.4
		c0.3,0.5,0.4,1,0.2,1.6c-0.3,1.2-1.5,2.8-4.1,4.1c-4.7,2.3-13.2,3.6-15.8,2.9C316.5,146.4,321.8,141.5,326,139.5L326,139.5z
		 M323.4,134.5L323.4,134.5c-4.1,2-12.5,8.2-13.8,13.1l0.6,4.1c4,5.5,19.9,0.6,23.6-1.2c3.7-1.8,6.3-4.6,7.1-7.6
		c0.6-2.2,0.2-4.4-1.1-6.2C336.9,132.5,329.7,131.5,323.4,134.5"/>
	<path id="path54" inkscape:connector-curvature="0" class="st5" d="M333.5,155c5.3,1.8,8.2,5.8,6.6,9.1c-1.6,3.3-7.2,4.5-12.5,2.7
		c-5.3-1.8-15.8-8.4-14.2-11.6C315,151.9,328.2,153.3,333.5,155"/>
	<path id="path56" inkscape:connector-curvature="0" class="st2" d="M334.4,152.4L334.4,152.4L334.4,152.4z M332.5,157.7
		L332.5,157.7c2.8,1,4.4,2.5,4.9,3.7c0.4,0.9,0.1,1.4,0,1.6c-0.9,1.7-4.9,2.7-9,1.3c-4.6-1.6-10.9-5.9-12.1-7.9
		C318.6,155.6,327.4,155.9,332.5,157.7L332.5,157.7z M310.7,154l0,4c2,4.7,11.4,10,15.9,11.4c6.7,2.2,13.8,0.4,16-4.1
		c0.5-1,0.7-2,0.7-3.1c0-1-0.2-2-0.6-3c-1.3-3-4.3-5.5-8.3-6.8C330.4,151.1,313.7,148,310.7,154"/>
	<path id="path58" inkscape:connector-curvature="0" class="st5" d="M334.2,144.9c7.8-0.1,14.2,2.8,14.2,6.3c0,3.5-6.3,6.4-14.1,6.5
		c-7.8,0.1-25.5-2.7-25.5-6.2C308.8,148,326.4,145,334.2,144.9"/>
	<path id="path60" inkscape:connector-curvature="0" class="st2" d="M345.6,151.3c0,0.1-0.1,0.4-0.5,0.7c-1.4,1.4-5.4,2.9-10.8,2.9
		c-6.7,0-17.3-1.8-21.4-3.5c4.1-1.8,14.6-3.7,21.3-3.8h0C341.7,147.7,345.6,150.3,345.6,151.3L345.6,151.3z M334.2,142.2
		L334.2,142.2c-5.7,0-22.6,2-26.9,6.3l-1.4,3.1c0.1,8.2,28.2,9,28.5,9c6.3,0,12-1.8,14.8-4.6c1.4-1.4,2.1-3,2.1-4.7
		C351.3,145.9,344.1,142.1,334.2,142.2"/>
	<g id="g62" transform="matrix(0.13333333,0,0,-0.13333333,0,462.54667)">
		<g>
			<defs>
				<path id="SVGID_5_" d="M1150.1,1702.1v-535.8c0-132.1-131.1-179.5-292.8-179.5l0,0c-161.7,0-292.7,47.4-292.7,179.5v542.1"/>
			</defs>
			<clipPath id="SVGID_6_">
				<use xlink:href="#SVGID_5_"  style="overflow:visible;"/>
			</clipPath>
			<g id="g64" class="st6">
				
					<linearGradient id="path76_1_" gradientUnits="userSpaceOnUse" x1="-964.5873" y1="-1220.6575" x2="-963.5873" y2="-1220.6575" gradientTransform="matrix(115.1603 -85.8228 -85.1246 -114.2234 7842.4512 -220675.3125)">
					<stop  offset="0" style="stop-color:#8C9BD6"/>
					<stop  offset="1" style="stop-color:#505E9B"/>
				</linearGradient>
				<path id="path76" inkscape:connector-curvature="0" class="st7" d="M1150.1,1702.1v-535.8c0-132.1-131.1-179.5-292.8-179.5l0,0
					c-161.7,0-292.7,47.4-292.7,179.5v542.1"/>
			</g>
		</g>
	</g>
	<path id="path78" inkscape:connector-curvature="0" class="st2" d="M72.4,234.8V307c0,17.2,14.9,26.7,41.9,26.7
		c27,0,41.9-9.5,41.9-26.7v-71.4c0-1.5-1.3-2.8-2.9-2.8c-1.6,0-2.9,1.2-2.9,2.8V307c0,17.5-19.7,21.1-36.2,21.1
		c-16.5,0-36.1-3.7-36.1-21.1v-72.3c0-1.5-1.3-2.8-2.9-2.8C73.7,232,72.4,233.2,72.4,234.8"/>
	<path id="path80" inkscape:connector-curvature="0" class="st5" d="M92.4,307c0,7.1-4.1,12.9-9.2,12.9c-5.1,0-9.2-5.8-9.2-12.9
		c0-7.1,4.1-23.3,9.2-23.3C88.3,283.7,92.4,299.8,92.4,307"/>
	<path id="path82" inkscape:connector-curvature="0" class="st2" d="M74.9,307c0-7.8,4.4-22.3,8.3-22.3c3.9,0,8.3,14.6,8.3,22.3
		c0,6.6-3.7,12-8.3,12C78.6,319,74.9,313.6,74.9,307z M73,307c0,7.6,4.6,13.9,10.2,13.9c5.6,0,10.2-6.2,10.2-13.9
		c0-7-4.1-24.2-10.2-24.2C77,282.8,73,300,73,307"/>
	<path id="path84" inkscape:connector-curvature="0" class="st8" d="M76.4,308.2c0-6.9,5-19.2,8.6-19.2c0.3,0,0.7,0.2,1,0.4
		c-0.9-2.2-2-3.6-3.1-3.6C79.4,285.8,76.4,301.4,76.4,308.2"/>
	<path id="path86" inkscape:connector-curvature="0" class="st5" d="M96.7,313.8c0,5.5-3.3,10-7.3,10c-4.1,0-7.3-4.5-7.3-10
		c0-5.5,3.3-18,7.3-18C93.5,295.9,96.7,308.3,96.7,313.8"/>
	<path id="path88" inkscape:connector-curvature="0" class="st2" d="M83,313.8c0-5.8,3.4-17,6.4-17c2.9,0,6.4,11.3,6.4,17
		c0,5-2.9,9-6.4,9C85.9,322.9,83,318.8,83,313.8z M81.1,313.8c0,6,3.7,10.9,8.3,10.9c4.6,0,8.3-4.9,8.3-10.9
		c0-4.7-2.9-18.9-8.3-18.9C84,294.9,81.1,309.1,81.1,313.8"/>
	<path id="path90" inkscape:connector-curvature="0" class="st8" d="M85.1,310.5c-0.4-3.9,3.1-10.4,5.8-10.9c0.3,0,0.5,0,0.8,0.1
		c-0.8-1.1-1.7-2-2.4-1.7C86.6,299.4,84.8,306.6,85.1,310.5"/>
	<g id="g92" transform="matrix(0.13333333,0,0,-0.13333333,0,462.54667)">
		<g>
			<defs>
				<path id="SVGID_7_" d="M2045.8,1695.5v-535.8c0-132.1-131.1-179.5-292.8-179.5l0,0c-161.7,0-292.8,47.3-292.8,179.5v542.1"/>
			</defs>
			<clipPath id="SVGID_8_">
				<use xlink:href="#SVGID_7_"  style="overflow:visible;"/>
			</clipPath>
			<g id="g94" class="st9">
				
					<linearGradient id="path106_1_" gradientUnits="userSpaceOnUse" x1="-964.5872" y1="-1220.6575" x2="-963.5872" y2="-1220.6575" gradientTransform="matrix(115.1591 -85.822 -85.1238 -114.2223 8168.4717 -220255.2344)">
					<stop  offset="0" style="stop-color:#8C9BD6"/>
					<stop  offset="1" style="stop-color:#505E9B"/>
				</linearGradient>
				<path id="path106" inkscape:connector-curvature="0" class="st10" d="M2045.8,1695.5v-535.8c0-132.1-131.1-179.5-292.8-179.5
					l0,0c-161.7,0-292.8,47.3-292.8,179.5v542.1"/>
			</g>
		</g>
	</g>
	<path id="path108" inkscape:connector-curvature="0" class="st2" d="M191.8,235.6v72.3c0,17.2,14.9,26.7,41.9,26.7
		c12.2,0,21.9-1.9,29-5.7c8.4-4.5,12.9-11.8,12.9-21v-71.4c0-1.5-1.3-2.8-2.9-2.8s-2.9,1.2-2.9,2.8v71.4c0,7.3-3.3,12.6-10,16.1
		c-6.1,3.3-15.2,5-26.2,5c-16.5,0-36.2-3.7-36.2-21.1v-72.3c0-1.5-1.3-2.8-2.9-2.8C193.1,232.8,191.8,234.1,191.8,235.6"/>
	<path id="path110" inkscape:connector-curvature="0" class="st11" d="M211.8,307.8c0,7.1-4.1,12.9-9.2,12.9
		c-5.1,0-9.2-5.8-9.2-12.9c0-7.1,4.1-23.3,9.2-23.3C207.7,284.6,211.8,300.7,211.8,307.8"/>
	<path id="path112" inkscape:connector-curvature="0" class="st2" d="M194.3,307.8c0-3.6,1.1-9.4,2.7-14c1.7-5.1,3.9-8.3,5.6-8.3
		c3.9,0,8.3,14.6,8.3,22.3c0,6.6-3.7,12-8.3,12C198,319.8,194.3,314.4,194.3,307.8L194.3,307.8z M195.1,293.2
		c-1.6,4.8-2.8,10.8-2.8,14.6c0,7.6,4.6,13.9,10.2,13.9c5.6,0,10.2-6.2,10.2-13.9c0-7-4.1-24.2-10.2-24.2
		C199.1,283.6,196.6,288.9,195.1,293.2"/>
	<path id="path114" inkscape:connector-curvature="0" class="st12" d="M195.8,309.1c0-6.9,5-19.2,8.6-19.2c0.4,0,0.7,0.2,1,0.4
		c-0.9-2.2-2-3.6-3.1-3.6C198.8,286.7,195.8,302.3,195.8,309.1"/>
	<path id="path116" inkscape:connector-curvature="0" class="st11" d="M216.2,314.7c0,5.5-3.3,10-7.3,10c-4.1,0-7.3-4.5-7.3-10
		c0-5.5,3.3-18,7.3-18C212.9,296.7,216.2,309.2,216.2,314.7"/>
	<path id="path118" inkscape:connector-curvature="0" class="st2" d="M202.4,314.7c0-5.8,3.4-17,6.4-17c2.9,0,6.4,11.3,6.4,17
		c0,5-2.9,9-6.4,9C205.3,323.7,202.4,319.7,202.4,314.7z M200.5,314.7c0,6,3.7,10.9,8.3,10.9c4.6,0,8.3-4.9,8.3-10.9
		c0-4.7-2.9-18.9-8.3-18.9C203.5,295.8,200.5,310,200.5,314.7"/>
	<path id="path120" inkscape:connector-curvature="0" class="st12" d="M204.6,311.4c-0.4-3.9,3.1-10.4,5.8-10.9c0.3,0,0.5,0,0.8,0.1
		c-0.8-1.1-1.7-2-2.4-1.7C206,300.2,204.2,307.5,204.6,311.4"/>
	<g id="g122" transform="matrix(0.13333333,0,0,-0.13333333,0,462.54667)">
		<g>
			<defs>
				<path id="SVGID_9_" d="M903.8,2433.9c114-185.4,101.9-342-50.1-424.1c-91-49.2-40.9-114-40.9-114"/>
			</defs>
			<clipPath id="SVGID_10_">
				<use xlink:href="#SVGID_9_"  style="overflow:visible;"/>
			</clipPath>
			<g id="g124" class="st13">
				
					<linearGradient id="path136_1_" gradientUnits="userSpaceOnUse" x1="-964.1602" y1="-1220.4268" x2="-963.1602" y2="-1220.4268" gradientTransform="matrix(111.7851 -83.3075 -82.6298 -110.8757 7974.5415 -213607.5469)">
					<stop  offset="0" style="stop-color:#808FD0"/>
					<stop  offset="1" style="stop-color:#505E9B"/>
				</linearGradient>
				<path id="path136" inkscape:connector-curvature="0" class="st14" d="M903.8,2433.9c114-185.4,101.9-342-50.1-424.1
					c-91-49.2-40.9-114-40.9-114"/>
			</g>
		</g>
	</g>
	<path id="path138" inkscape:connector-curvature="0" class="st15" d="M119,135.6c-1.4,0.8-1.8,2.5-1,3.8c8.5,13.8,11.5,26.2,8.8,36
		c-1.9,7-6.8,12.6-14.4,16.7c-4.8,2.6-7.7,5.9-8.5,9.7c-1.2,5.2,2,9.4,2.2,9.6c0.9,1.2,2.7,1.5,4,0.6c1.3-0.9,1.6-2.6,0.6-3.9
		c0,0-1.8-2.4-1.1-5.2c0.5-2.2,2.4-4.2,5.7-6c9-4.9,14.8-11.6,17.1-20.1c3.1-11.3-0.1-25.2-9.4-40.3
		C122.2,135.3,120.4,134.9,119,135.6"/>
	<g id="g140" transform="matrix(0.13333333,0,0,-0.13333333,0,462.54667)">
		<g>
			<defs>
				<path id="SVGID_11_" d="M1569.9,2565.3c0,0-189.3,2.2-881-20.7c-691.7-22.9-666.2-270.9-667.2-627.1v-856.8
					c0-72.5,62.8-101.7,140.3-101.7c77.5,0,140.4,29.2,140.4,101.7c0,0,17.9,244.8,33.3,393.7c34.5,541,687.6-89,1162.3-59.6
					c431.4,26.7,771.2,175.7,771.2,529.5C2269,2278.4,2046.4,2565.3,1569.9,2565.3L1569.9,2565.3z"/>
			</defs>
			<clipPath id="SVGID_12_">
				<use xlink:href="#SVGID_11_"  style="overflow:visible;"/>
			</clipPath>
			<g id="g142" class="st16">
				
					<linearGradient id="path154_1_" gradientUnits="userSpaceOnUse" x1="-964.7203" y1="-1220.7294" x2="-963.7203" y2="-1220.7294" gradientTransform="matrix(116.2523 -86.6366 -85.9318 -115.3065 8146.0562 -222515.875)">
					<stop  offset="0" style="stop-color:#8C9BD6"/>
					<stop  offset="1" style="stop-color:#505E9B"/>
				</linearGradient>
				<path id="path154" inkscape:connector-curvature="0" class="st17" d="M1569.9,2565.3c0,0-189.3,2.2-881-20.7
					c-691.7-22.9-666.2-270.9-667.2-627.1v-856.8c0-72.5,62.8-101.7,140.3-101.7c77.5,0,140.4,29.2,140.4,101.7
					c0,0,17.9,244.8,33.3,393.7c34.5,541,687.6-89,1162.3-59.6c431.4,26.7,771.2,175.7,771.2,529.5
					C2269,2278.4,2046.4,2565.3,1569.9,2565.3"/>
			</g>
		</g>
	</g>
	<path id="path156" inkscape:connector-curvature="0" class="st2" d="M5.8,321.1V206.9c0,0,0-5,0-5c0-43.9,0-73,86.2-75.8
		c91-3,117.1-2.8,117.3-2.8h0c29,0,52.6,8.4,68.3,24.2c14.4,14.5,22,34.7,22,58.5c0,50.9-54.4,65-100.1,67.8
		c-24,1.5-52.4-10.4-77.4-20.9c-28-11.8-52.3-21.9-67.2-13.1c-7.9,4.7-12.2,14-13.1,28.6c-2,19.6-4.4,52.1-4.4,52.5
		c0,9.6-9.9,11-15.8,11C15.7,331.9,5.8,330.5,5.8,321.1L5.8,321.1z M91.8,120.5C0,123.5,0,156.4,0,201.8l0,5v114.2
		c0,10.2,8.1,16.3,21.6,16.3c13.5,0,21.6-6.1,21.6-16.3c0-0.1,2.4-32.6,4.4-52.2c0.8-12.8,4.2-20.7,10.4-24.3
		c12.4-7.3,36.4,2.8,61.9,13.5c25.6,10.7,54.6,22.9,80.1,21.3c68-4.2,105.5-30.3,105.5-73.4c0-25.3-8.2-46.8-23.6-62.4
		c-16.8-16.9-41.9-25.9-72.5-25.9h0C209.1,117.7,183,117.5,91.8,120.5"/>
	<g id="g158" transform="matrix(0.13333333,0,0,-0.13333333,0,462.54667)">
		<g>
			<defs>
				<path id="SVGID_13_" d="M40.5,1894c0.7-80.5-10.6-783.2,33.8-825.4c-13.9,31.1,16.6,712,16.2,754.8l-0.4,25
					c0,11.9,0,23.7,0,35.4c-17.1,6.3-33.7,14.1-49.7,23L40.5,1894z"/>
			</defs>
			<clipPath id="SVGID_14_">
				<use xlink:href="#SVGID_13_"  style="overflow:visible;"/>
			</clipPath>
			<g id="g160" class="st18">
				
					<linearGradient id="path172_1_" gradientUnits="userSpaceOnUse" x1="-962.015" y1="-1225.5302" x2="-961.015" y2="-1225.5302" gradientTransform="matrix(76.9715 -112.182 -111.2694 -76.3453 -62620.4062 -199445.2031)">
					<stop  offset="0" style="stop-color:#FAFAFD"/>
					<stop  offset="1" style="stop-color:#8892D2"/>
				</linearGradient>
				<path id="path172" inkscape:connector-curvature="0" class="st19" d="M40.5,1894c0.7-80.5-10.6-783.2,33.8-825.4
					c-13.9,31.1,16.6,712,16.2,754.8l-0.4,25c0,11.9,0,23.7,0,35.4c-17.1,6.3-33.7,14.1-49.7,23L40.5,1894"/>
			</g>
		</g>
	</g>
	<g id="g174" transform="matrix(0.13333333,0,0,-0.13333333,0,462.54667)">
		<g>
			<defs>
				<path id="SVGID_15_" d="M1569.7,2541.8c0,0-185.2,2.2-862-20.2c-676.8-22.4-666.4-271.8-666.4-607l0.1-12.4
					c15.7-8.9,31.9-16.7,48.6-23c0.2,317.3,13.6,550.1,666.4,571.7c676.8,22.4,862,20.2,862,20.2c258.8,0,437-87.4,547.9-223.7
					C2064.2,2423.7,1870.8,2541.8,1569.7,2541.8L1569.7,2541.8z"/>
			</defs>
			<clipPath id="SVGID_16_">
				<use xlink:href="#SVGID_15_"  style="overflow:visible;"/>
			</clipPath>
			<g id="g176" class="st20">
				
					<linearGradient id="path188_1_" gradientUnits="userSpaceOnUse" x1="-964.386" y1="-1225.9231" x2="-963.386" y2="-1225.9231" gradientTransform="matrix(89.6893 -130.7176 -129.6543 -88.9597 -71801.0703 -232382.25)">
					<stop  offset="0" style="stop-color:#FAFAFD"/>
					<stop  offset="1" style="stop-color:#8892D2"/>
				</linearGradient>
				<path id="path188" inkscape:connector-curvature="0" class="st21" d="M1569.7,2541.8c0,0-185.2,2.2-862-20.2
					c-676.8-22.4-666.4-271.8-666.4-607l0.1-12.4c15.7-8.9,31.9-16.7,48.6-23c0.2,317.3,13.6,550.1,666.4,571.7
					c676.8,22.4,862,20.2,862,20.2c258.8,0,437-87.4,547.9-223.7C2064.2,2423.7,1870.8,2541.8,1569.7,2541.8"/>
			</g>
		</g>
	</g>
	<g id="g190" transform="matrix(0.13333333,0,0,-0.13333333,0,462.54667)">
		<g>
			<defs>
				<path id="SVGID_17_" d="M1333.9,1456.3v-381.6c0-132.1-131.1-179.6-292.8-179.6l0,0c-161.7,0-292.8,47.5-292.8,179.6v580.8"/>
			</defs>
			<clipPath id="SVGID_18_">
				<use xlink:href="#SVGID_17_"  style="overflow:visible;"/>
			</clipPath>
			<g id="g192" class="st22">
				
					<linearGradient id="path204_1_" gradientUnits="userSpaceOnUse" x1="-964.58" y1="-1220.6536" x2="-963.58" y2="-1220.6536" gradientTransform="matrix(115.1004 -85.7781 -85.0804 -114.164 7824.4443 -220580.1562)">
					<stop  offset="0" style="stop-color:#8C9BD6"/>
					<stop  offset="1" style="stop-color:#505E9B"/>
				</linearGradient>
				<path id="path204" inkscape:connector-curvature="0" class="st23" d="M1333.9,1456.3v-381.6c0-132.1-131.1-179.6-292.8-179.6
					l0,0c-161.7,0-292.8,47.5-292.8,179.6v580.8"/>
			</g>
		</g>
	</g>
	<path id="path206" inkscape:connector-curvature="0" class="st2" d="M96.9,241.8v77.4c0,17.2,14.9,26.7,41.9,26.7
		c27,0,41.9-9.5,41.9-26.7v-50.9c0-1.5-1.3-2.8-2.9-2.8s-2.9,1.2-2.9,2.8v50.9c0,17.5-19.7,21.2-36.2,21.2
		c-16.5,0-36.1-3.7-36.1-21.2v-77.4c0-1.5-1.3-2.8-2.9-2.8C98.2,239,96.9,240.3,96.9,241.8"/>
	<path id="path208" inkscape:connector-curvature="0" class="st5" d="M124.3,324.2c0,6.6-5.5,12-12.3,12c-6.8,0-12.3-5.4-12.3-12
		c0-6.6,5.5-21.6,12.3-21.6C118.8,302.6,124.3,317.6,124.3,324.2"/>
	<path id="path210" inkscape:connector-curvature="0" class="st2" d="M100.7,324.2c0-6.5,5.5-20.7,11.4-20.7
		c5.9,0,11.4,14.2,11.4,20.7c0,6.1-5.1,11.1-11.4,11.1C105.8,335.3,100.7,330.3,100.7,324.2z M98.7,324.2c0,7.1,6,12.9,13.3,12.9
		c7.3,0,13.3-5.8,13.3-12.9c0-6.7-5.6-22.5-13.3-22.5C104.3,301.6,98.7,317.5,98.7,324.2"/>
	<path id="path212" inkscape:connector-curvature="0" class="st8" d="M101.8,325c0-5.9,6.9-16.6,11.9-16.6c0.5,0,0.9,0.2,1.4,0.4
		c-1.3-1.9-2.7-3.1-4.2-3.1C105.9,305.6,101.8,319.1,101.8,325"/>
	<path id="path214" inkscape:connector-curvature="0" class="st5" d="M134.4,325.1c0,8.7-5.7,15.9-12.8,15.9
		c-7.1,0-12.8-7.1-12.8-15.9c0-8.8,5.7-28.5,12.8-28.5C128.7,296.6,134.4,316.4,134.4,325.1"/>
	<path id="path216" inkscape:connector-curvature="0" class="st2" d="M109.8,325.1c0-8.6,5.7-27.6,11.8-27.6
		c6.1,0,11.8,19,11.8,27.6c0,8.2-5.3,14.9-11.8,14.9C115.1,340.1,109.8,333.4,109.8,325.1z M107.9,325.1c0,9.3,6.2,16.8,13.7,16.8
		c7.6,0,13.7-7.5,13.7-16.8c0-8.8-5.8-29.4-13.7-29.4C113.7,295.7,107.9,316.3,107.9,325.1"/>
	<path id="path218" inkscape:connector-curvature="0" class="st8" d="M112.3,326.7c0-8.4,6.9-23.6,11.9-23.6c0.5,0,1,0.2,1.4,0.5
		c-1.3-2.7-2.7-4.4-4.2-4.4C116.4,299.2,112.3,318.3,112.3,326.7"/>
	<path id="path220" inkscape:connector-curvature="0" class="st5" d="M141.1,329.8c0,6.2-4.1,11.2-9.2,11.2c-5.1,0-9.2-5-9.2-11.2
		c0-6.2,4.1-20.2,9.2-20.2C137,309.6,141.1,323.6,141.1,329.8"/>
	<path id="path222" inkscape:connector-curvature="0" class="st2" d="M123.7,329.8c0-6.7,4.4-19.3,8.2-19.3c3.9,0,8.2,12.6,8.2,19.3
		c0,5.7-3.7,10.3-8.2,10.3C127.4,340.1,123.7,335.5,123.7,329.8z M121.7,329.8c0,6.7,4.6,12.1,10.1,12.1c5.6,0,10.1-5.4,10.1-12.1
		c0-6.1-4-21.1-10.1-21.1C125.8,308.7,121.7,323.7,121.7,329.8"/>
	<path id="path224" inkscape:connector-curvature="0" class="st8" d="M126.6,326.1c-0.5-4.4,3.8-11.7,7.2-12.3c0.3-0.1,0.6,0,1,0.1
		c-1-1.3-2.1-2.3-3-1.9C128.3,313.6,126.1,321.7,126.6,326.1"/>
	<g id="g226" transform="matrix(0.13333333,0,0,-0.13333333,0,462.54667)">
		<g>
			<defs>
				<path id="SVGID_19_" d="M2229.9,1718.5v-628.9c0-132.1-131.1-179.5-292.8-179.5l0,0c-161.7,0-292.8,47.4-292.8,179.5v361.3"/>
			</defs>
			<clipPath id="SVGID_20_">
				<use xlink:href="#SVGID_19_"  style="overflow:visible;"/>
			</clipPath>
			<g id="g228" class="st24">
				
					<linearGradient id="path240_1_" gradientUnits="userSpaceOnUse" x1="-964.629" y1="-1220.6801" x2="-963.629" y2="-1220.6801" gradientTransform="matrix(115.5005 -86.0763 -85.3761 -114.5608 8244.7773 -220845.2812)">
					<stop  offset="0" style="stop-color:#8C9BD6"/>
					<stop  offset="1" style="stop-color:#505E9B"/>
				</linearGradient>
				<path id="path240" inkscape:connector-curvature="0" class="st25" d="M2229.9,1718.5v-628.9c0-132.1-131.1-179.5-292.8-179.5
					l0,0c-161.7,0-292.8,47.4-292.8,179.5v361.3"/>
			</g>
		</g>
	</g>
	<path id="path242" inkscape:connector-curvature="0" class="st2" d="M294.4,233.4v83.9c0,17.5-19.7,21.2-36.2,21.2
		c-16.5,0-36.1-3.7-36.1-21.2v-48.2c0-1.5-1.3-2.8-2.9-2.8c-1.6,0-2.9,1.2-2.9,2.8v48.2c0,17.2,14.9,26.7,41.9,26.7
		c27,0,41.9-9.5,41.9-26.7v-83.9c0-1.5-1.3-2.8-2.9-2.8C295.7,230.6,294.4,231.9,294.4,233.4"/>
	<path id="path244" inkscape:connector-curvature="0" class="st5" d="M243.8,322.2c0,6.6-5.5,12-12.3,12s-12.3-5.4-12.3-12
		c0-6.6,5.5-21.6,12.3-21.6S243.8,315.6,243.8,322.2"/>
	<path id="path246" inkscape:connector-curvature="0" class="st2" d="M220.1,322.2c0-6.5,5.5-20.7,11.4-20.7
		c5.9,0,11.4,14.2,11.4,20.7c0,6.1-5.1,11.1-11.4,11.1C225.2,333.3,220.1,328.3,220.1,322.2z M218.2,322.2c0,7.1,6,12.9,13.3,12.9
		s13.3-5.8,13.3-12.9c0-6.7-5.6-22.5-13.3-22.5C223.8,299.7,218.2,315.5,218.2,322.2"/>
	<path id="path248" inkscape:connector-curvature="0" class="st8" d="M221.3,323c0-5.9,6.9-16.6,11.9-16.6c0.5,0,0.9,0.2,1.4,0.4
		c-1.3-1.9-2.7-3.1-4.2-3.1C225.3,303.7,221.3,317.1,221.3,323"/>
	<path id="path250" inkscape:connector-curvature="0" class="st5" d="M253.8,323.1c0,8.7-5.7,15.9-12.8,15.9
		c-7.1,0-12.8-7.1-12.8-15.9c0-8.8,5.7-28.5,12.8-28.5C248.1,294.6,253.8,314.4,253.8,323.1"/>
	<path id="path252" inkscape:connector-curvature="0" class="st2" d="M229.3,323.1c0-8.6,5.7-27.6,11.8-27.6
		c6.1,0,11.8,19,11.8,27.6c0,8.2-5.3,14.9-11.8,14.9C234.6,338.1,229.3,331.4,229.3,323.1z M227.4,323.1c0,9.3,6.2,16.8,13.7,16.8
		c7.6,0,13.7-7.5,13.7-16.8c0-8.8-5.8-29.4-13.7-29.4C233.2,293.7,227.4,314.4,227.4,323.1"/>
	<path id="path254" inkscape:connector-curvature="0" class="st8" d="M231.8,324.7c0-8.4,6.9-23.6,11.9-23.6c0.5,0,1,0.2,1.4,0.5
		c-1.3-2.7-2.7-4.4-4.2-4.4C235.8,297.3,231.8,316.3,231.8,324.7"/>
	<path id="path256" inkscape:connector-curvature="0" class="st5" d="M260.5,327.8c0,6.2-4.1,11.2-9.2,11.2c-5.1,0-9.2-5-9.2-11.2
		c0-6.2,4.1-20.2,9.2-20.2C256.4,307.6,260.5,321.6,260.5,327.8"/>
	<path id="path258" inkscape:connector-curvature="0" class="st2" d="M243.1,327.8c0-6.7,4.4-19.3,8.2-19.3c3.9,0,8.2,12.6,8.2,19.3
		c0,5.7-3.7,10.3-8.2,10.3C246.8,338.1,243.1,333.5,243.1,327.8L243.1,327.8z M241.2,327.8c0,6.7,4.5,12.1,10.1,12.1
		c5.6,0,10.1-5.4,10.1-12.1c0-6.1-4-21.1-10.1-21.1C245.3,306.7,241.2,321.8,241.2,327.8"/>
	<path id="path260" inkscape:connector-curvature="0" class="st8" d="M246,324.2c-0.5-4.4,3.8-11.7,7.2-12.3c0.3,0,0.6,0,1,0.1
		c-1-1.3-2.1-2.3-3-1.9C247.8,311.6,245.6,319.7,246,324.2"/>
	<path id="path262" inkscape:connector-curvature="0" class="st2" d="M27.3,160.3c-1,1.4-0.7,3.3,0.8,4.3c1.5,1,3.5,0.6,4.5-0.8
		c5.8-7.9,18.8-10.1,25-7.8c1.2,0.4,2.8,0.3,3.5-0.4c0.7-0.7,0.2-1.6-1-2.1C51.7,150.4,35,149.8,27.3,160.3"/>
	<path id="path264" inkscape:connector-curvature="0" class="st2" d="M52.5,194.9c-5.4,1.1-10.1-1.9-10.5-6.7
		c-0.5-4.8,3.5-9.7,8.9-10.8c5.4-1.1,10.1,1.9,10.6,6.7C61.8,189,57.8,193.8,52.5,194.9z M63.6,183.5c-0.5-5.6-6.1-9.1-12.5-7.8
		c-6.3,1.3-11.1,7-10.5,12.6c0.5,5.6,6.1,9.1,12.5,7.8C59.4,194.8,64.1,189.1,63.6,183.5"/>
	<path id="path266" inkscape:connector-curvature="0" class="st26" d="M61,184.5c0.4,4.2-3.1,8.5-7.8,9.5c-4.7,1-8.8-1.6-9.3-5.9
		c-0.4-4.2,3.1-8.5,7.8-9.5C56.5,177.6,60.6,180.3,61,184.5"/>
	<path id="path268" inkscape:connector-curvature="0" class="st2" d="M60.3,184.6c-1.3-3.2-4.6-5.1-7.5-4.2
		c-1.5,0.5-2.6,1.7-3.1,3.1l4,2l-3.7,2.7c1.4,3.1,4.6,4.8,7.4,3.9C60.3,191.2,61.6,187.8,60.3,184.6"/>
	<path id="path270" inkscape:connector-curvature="0" class="st27" d="M57.4,183.2c0.7-0.1,1.5,0.8,1.9,2c0.3,1.2,0,2.2-0.8,2.3
		c-0.7,0.1-1.6-0.8-1.9-2C56.3,184.3,56.7,183.3,57.4,183.2"/>
	<path id="path272" inkscape:connector-curvature="0" class="st2" d="M45.8,178.3c-5,3.9-6.6,9.5-3.2,12.7c-0.3-0.1,0.3,0.7,0.1,0.5
		c-5.3-3-6.2-11.7-1.3-16.9c4.2-4.4,16.9-7.7,16.8-6c-0.5,2-4.2,4.5-8.8,7.2C47.8,176.6,46.7,177.6,45.8,178.3"/>
	<path id="path274" inkscape:connector-curvature="0" class="st2" d="M128.1,232.8c-0.3,1.3,0.6,2.4,2,2.4h7.7
		c1.3,0,2.7-1.1,2.9-2.4l2.1-10.6c0.3-1.3,1.6-2.4,2.9-2.4h8.4c4.8,0,8.7-0.5,11.8-1.5c3.1-1,5.9-2.7,8.4-5c2.1-1.9,3.8-4.1,5.1-6.4
		c1.3-2.3,2.2-4.9,2.8-7.8c1.3-6.9,0-12-3-16c-3.8-5.1-13.5-5.4-13.5-5.4c-1.3-0.2-3.5-0.4-4.9-0.4h-19.4c-1.3,0-2.7,1.1-2.9,2.4
		L128.1,232.8z M158.4,186.5c4.8,0,8,0.9,9.6,2.7c1.6,1.8,2,4.8,1.1,9.1c-0.9,4.5-2.6,7.7-5,9.6c-2.5,1.9-8.9,2.6-8.9,2.6
		c-1.3,0.1-3.5,0.3-4.9,0.3h-2.8c-1.3,0-2.2-1.1-2-2.4l3.8-19.4c0.3-1.3,1.6-2.4,2.9-2.4H158.4"/>
	<path id="path276" inkscape:connector-curvature="0" class="st28" d="M128.1,232.8c-0.3,1.3,0.6,2.4,2,2.4h7.7
		c1.3,0,2.7-1.1,2.9-2.4l2.1-10.6c0.3-1.3,1.6-2.4,2.9-2.4h8.4c4.8,0,8.7-0.5,11.8-1.5c3.1-1,5.9-2.7,8.4-5c2.1-1.9,3.8-4.1,5.1-6.4
		c1.3-2.3,2.2-4.9,2.8-7.8c1.3-6.9,0-12-3-16c-3.8-5.1-13.5-5.4-13.5-5.4c-1.3-0.2-3.5-0.4-4.9-0.4h-19.4c-1.3,0-2.7,1.1-2.9,2.4
		L128.1,232.8z M158.4,186.5c4.8,0,8,0.9,9.6,2.7c1.6,1.8,2,4.8,1.1,9.1c-0.9,4.5-2.6,7.7-5,9.6c-2.5,1.9-8.9,2.6-8.9,2.6
		c-1.3,0.1-3.5,0.3-4.9,0.3h-2.8c-1.3,0-2.2-1.1-2-2.4l3.8-19.4c0.3-1.3,1.6-2.4,2.9-2.4H158.4z"/>
	<path id="path278" inkscape:connector-curvature="0" class="st2" d="M194.3,164.3c0.3-1.3,1.6-2.4,2.9-2.4h7.6c1.3,0,2.2,1.1,2,2.4
		l-2.1,10.6c-0.3,1.3,0.6,2.4,2,2.4h6.3c1.3,0,3.5,0.1,4.9,0.3c0,0,9.1,0.1,12.1,3.4c2.4,2.7,3.5,6.4,2.4,11.9l-4.8,24.6
		c-0.3,1.3-1.6,2.4-2.9,2.4h-7.8c-1.3,0-2.2-1.1-2-2.4l4.1-20.8c0.3-1.3,0.5-3.5,0.6-4.8c0,0,0.2-2.5-0.8-3.5
		c-1-1.1-3.1-1.6-6.3-1.6H205c-1.3,0-2.7,1.1-2.9,2.4l-5.5,28.4c-0.3,1.3-1.6,2.4-2.9,2.4H186c-1.3,0-2.2-1.1-2-2.4L194.3,164.3"/>
	<path id="path280" inkscape:connector-curvature="0" class="st28" d="M194.3,164.3c0.3-1.3,1.6-2.4,2.9-2.4h7.6
		c1.3,0,2.2,1.1,2,2.4l-2.1,10.6c-0.3,1.3,0.6,2.4,2,2.4h6.3c1.3,0,3.5,0.1,4.9,0.3c0,0,9.1,0.1,12.1,3.4c2.4,2.7,3.5,6.4,2.4,11.9
		l-4.8,24.6c-0.3,1.3-1.6,2.4-2.9,2.4h-7.8c-1.3,0-2.2-1.1-2-2.4l4.1-20.8c0.3-1.3,0.5-3.5,0.6-4.8c0,0,0.2-2.5-0.8-3.5
		c-1-1.1-3.1-1.6-6.3-1.6H205c-1.3,0-2.7,1.1-2.9,2.4l-5.5,28.4c-0.3,1.3-1.6,2.4-2.9,2.4H186c-1.3,0-2.2-1.1-2-2.4L194.3,164.3z"/>
	<path id="path282" inkscape:connector-curvature="0" class="st2" d="M233,232.8c-0.3,1.3,0.6,2.4,2,2.4h7.7c1.3,0,2.7-1.1,2.9-2.4
		l2.1-10.6c0.3-1.3,1.6-2.4,2.9-2.4h8.4c4.8,0,8.7-0.5,11.8-1.5c3.1-1,5.9-2.7,8.4-5c2.1-1.9,3.8-4.1,5.1-6.4
		c1.3-2.3,2.2-4.9,2.8-7.8c1.3-6.9,0.1-12-3-16c-3.9-5-13.6-5.4-13.6-5.4c-1.3-0.2-3.5-0.4-4.9-0.4h-19.4c-1.3,0-2.7,1.1-2.9,2.4
		L233,232.8z M263.3,186.5c4.8,0,8,0.9,9.6,2.7c1.6,1.8,2,4.8,1.1,9.1c-0.9,4.5-2.5,7.7-5,9.6c-2.5,1.9-8.9,2.6-8.9,2.6
		c-1.3,0.1-3.5,0.3-4.9,0.3h-2.8c-1.3,0-2.2-1.1-2-2.4l3.8-19.4c0.3-1.3,1.6-2.4,2.9-2.4L263.3,186.5"/>
	<path id="path284" inkscape:connector-curvature="0" class="st28" d="M233,232.8c-0.3,1.3,0.6,2.4,2,2.4h7.7c1.3,0,2.7-1.1,2.9-2.4
		l2.1-10.6c0.3-1.3,1.6-2.4,2.9-2.4h8.4c4.8,0,8.7-0.5,11.8-1.5c3.1-1,5.9-2.7,8.4-5c2.1-1.9,3.8-4.1,5.1-6.4
		c1.3-2.3,2.2-4.9,2.8-7.8c1.3-6.9,0.1-12-3-16c-3.9-5-13.6-5.4-13.6-5.4c-1.3-0.2-3.5-0.4-4.9-0.4h-19.4c-1.3,0-2.7,1.1-2.9,2.4
		L233,232.8z M263.3,186.5c4.8,0,8,0.9,9.6,2.7c1.6,1.8,2,4.8,1.1,9.1c-0.9,4.5-2.5,7.7-5,9.6c-2.5,1.9-8.9,2.6-8.9,2.6
		c-1.3,0.1-3.5,0.3-4.9,0.3h-2.8c-1.3,0-2.2-1.1-2-2.4l3.8-19.4c0.3-1.3,1.6-2.4,2.9-2.4L263.3,186.5z"/>
	<path id="path286" inkscape:connector-curvature="0" class="st2" d="M128.1,232.8c-0.3,1.3,0.6,2.4,2,2.4h7.7
		c1.3,0,2.7-1.1,2.9-2.4l2.1-10.6c0.3-1.3,1.6-2.4,2.9-2.4h8.4c4.8,0,8.7-0.5,11.8-1.5c3.1-1,5.9-2.7,8.4-5c2.1-1.9,3.8-4.1,5.1-6.4
		c1.3-2.3,2.2-4.9,2.8-7.8c1.3-6.9,0-12-3-16c-3.8-5.1-13.5-5.4-13.5-5.4c-1.3-0.2-3.5-0.4-4.9-0.4h-19.4c-1.3,0-2.7,1.1-2.9,2.4
		L128.1,232.8z M158.4,186.5c4.8,0,8,0.9,9.6,2.7c1.6,1.8,2,4.8,1.1,9.1c-0.9,4.5-2.6,7.7-5,9.6c-2.5,1.9-8.9,2.6-8.9,2.6
		c-1.3,0.1-3.5,0.3-4.9,0.3h-2.8c-1.3,0-2.2-1.1-2-2.4l3.8-19.4c0.3-1.3,1.6-2.4,2.9-2.4H158.4"/>
	<path id="path288" inkscape:connector-curvature="0" class="st2" d="M194.3,164.3c0.3-1.3,1.6-2.4,2.9-2.4h7.6c1.3,0,2.2,1.1,2,2.4
		l-2.1,10.6c-0.3,1.3,0.6,2.4,2,2.4h6.3c1.3,0,3.5,0.1,4.9,0.3c0,0,9.1,0.1,12.1,3.4c2.4,2.7,3.5,6.4,2.4,11.9l-4.8,24.6
		c-0.3,1.3-1.6,2.4-2.9,2.4h-7.8c-1.3,0-2.2-1.1-2-2.4l4.1-20.8c0.3-1.3,0.5-3.5,0.6-4.8c0,0,0.2-2.5-0.8-3.5
		c-1-1.1-3.1-1.6-6.3-1.6H205c-1.3,0-2.7,1.1-2.9,2.4l-5.5,28.4c-0.3,1.3-1.6,2.4-2.9,2.4H186c-1.3,0-2.2-1.1-2-2.4L194.3,164.3"/>
	<path id="path290" inkscape:connector-curvature="0" class="st2" d="M233,232.8c-0.3,1.3,0.6,2.4,2,2.4h7.7c1.3,0,2.7-1.1,2.9-2.4
		l2.1-10.6c0.3-1.3,1.6-2.4,2.9-2.4h8.4c4.8,0,8.7-0.5,11.8-1.5c3.1-1,5.9-2.7,8.4-5c2.1-1.9,3.8-4.1,5.1-6.4
		c1.3-2.3,2.2-4.9,2.8-7.8c1.3-6.9,0.1-12-3-16c-3.9-5-13.6-5.4-13.6-5.4c-1.3-0.2-3.5-0.4-4.9-0.4h-19.4c-1.3,0-2.7,1.1-2.9,2.4
		L233,232.8z M263.3,186.5c4.8,0,8,0.9,9.6,2.7c1.6,1.8,2,4.8,1.1,9.1c-0.9,4.5-2.5,7.7-5,9.6c-2.5,1.9-8.9,2.6-8.9,2.6
		c-1.3,0.1-3.5,0.3-4.9,0.3h-2.8c-1.3,0-2.2-1.1-2-2.4l3.8-19.4c0.3-1.3,1.6-2.4,2.9-2.4L263.3,186.5"/>
	<g id="g292" transform="matrix(0.13333333,0,0,-0.13333333,0,462.54667)">
		<g>
			<defs>
				<path id="SVGID_21_" d="M571.9,2500.6c0,0,171.5,117.9,279.9,158.4c34.5,12.9,283.7,78.7,324.1-351.5
					c22.1-235.6-17.7-398.2-210.8-427.7c-115.6-17.7-97.7-103.8-97.7-103.8"/>
			</defs>
			<clipPath id="SVGID_22_">
				<use xlink:href="#SVGID_21_"  style="overflow:visible;"/>
			</clipPath>
			<g id="g294" class="st29">
				
					<linearGradient id="path306_1_" gradientUnits="userSpaceOnUse" x1="-964.6074" y1="-1220.6682" x2="-963.6074" y2="-1220.6682" gradientTransform="matrix(115.3232 -85.9442 -85.245 -114.385 8284.1533 -220432.4688)">
					<stop  offset="0" style="stop-color:#8C9BD6"/>
					<stop  offset="1" style="stop-color:#505E9B"/>
				</linearGradient>
				<path id="path306" inkscape:connector-curvature="0" class="st30" d="M571.9,2500.6c0,0,171.5,117.9,279.9,158.4
					c34.5,12.9,283.7,78.7,324.1-351.5c22.1-235.6-17.7-398.2-210.8-427.7c-115.6-17.7-97.7-103.8-97.7-103.8"/>
			</g>
		</g>
	</g>
	<path id="path308" inkscape:connector-curvature="0" class="st2" d="M112.5,105.4c-14.6,5.5-37,20.8-37.9,21.4
		c-1.3,0.9-1.6,2.6-0.7,3.9c0.9,1.3,2.7,1.5,4,0.6c0.2-0.2,22.7-15.6,36.7-20.8c0.4-0.2,10.7-3.9,20.5,2
		c10.2,6.1,16.7,20.8,18.8,42.5c3.2,34.6-4.4,50.8-25.7,54c-6,0.9-10.4,3.2-13,6.9c-3.5,4.8-2.4,10-2.4,10.3
		c0.3,1.5,1.8,2.5,3.4,2.2c1.6-0.3,2.6-1.7,2.3-3.2c0,0-0.6-3.3,1.5-6.1c1.7-2.3,4.8-3.8,9.2-4.5c31.6-4.8,32.9-34.6,30.5-60
		c-2.2-23.8-9.5-39.5-21.5-46.7C126.1,100.7,113.9,104.9,112.5,105.4"/>
	<g id="g310" transform="matrix(0.13333333,0,0,-0.13333333,0,462.54667)">
		<g>
			<defs>
				<path id="SVGID_23_" d="M747.3,2531.8c194.2,121.5,302,59.4,302,59.4c-84.4,77.2-179.4,51.6-200.4,43.7
					C741,2594.4,532.4,2445,532.4,2445s-28.2-50,28-39.2C560.4,2405.9,682.6,2491.3,747.3,2531.8L747.3,2531.8z"/>
			</defs>
			<clipPath id="SVGID_24_">
				<use xlink:href="#SVGID_23_"  style="overflow:visible;"/>
			</clipPath>
			<g id="g312" class="st31">
				
					<linearGradient id="path324_1_" gradientUnits="userSpaceOnUse" x1="-964.6951" y1="-1225.9744" x2="-963.6951" y2="-1225.9744" gradientTransform="matrix(91.6631 -133.595 -132.5083 -90.9174 -73391.1562 -237613.5156)">
					<stop  offset="0" style="stop-color:#FAFAFD"/>
					<stop  offset="1" style="stop-color:#8892D2"/>
				</linearGradient>
				<path id="path324" inkscape:connector-curvature="0" class="st32" d="M747.3,2531.8c194.2,121.5,302,59.4,302,59.4
					c-84.4,77.2-179.4,51.6-200.4,43.7C741,2594.4,532.4,2445,532.4,2445s-28.2-50,28-39.2C560.4,2405.9,682.6,2491.3,747.3,2531.8"
					/>
			</g>
		</g>
	</g>
	<path id="path326" inkscape:connector-curvature="0" class="st2" d="M90.3,201.4c-0.2,13.1-4.6,25.1-11.4,31.2
		c-3.1,2.8-6.5,4.1-9.9,4c-1.1-0.1-2,0.7-2,1.8c-0.1,1,0.8,1.9,1.8,1.9c4.5,0.2,8.9-1.5,12.8-5c7.5-6.8,12.3-19.8,12.6-33.9
		c0-1-0.8-1.9-1.9-1.9C91.2,199.6,90.3,200.4,90.3,201.4"/>
	<path id="path328" inkscape:connector-curvature="0" class="st2" d="M98.6,192c-1.4,3.3-4,5.4-7,5.8c-2.9,0.3-5.8-1-7.9-3.6
		c-0.6-0.8-1.8-1-2.7-0.4c-0.8,0.6-1,1.8-0.4,2.6c2.9,3.7,7.1,5.6,11.4,5.1c4.4-0.5,8-3.5,10-8c0.4-0.9-0.1-2-1-2.4
		C100.2,190.6,99,191.1,98.6,192"/>
</g>
</svg>
